# xmcd
#
# Track frame offsets: 
#        300
#        11408
#        32249
#        48247
#        74812
#        91068
#        110388
#        127848
#        154636
#        172166
#        196808
#
# Disc length: 2852 seconds
#
# Revision: 1
# Processed by: cddbd v1.5.2PL0 Copyright (c) Steve Scherf et al.
# Submitted via: ExactAudioCopy v0.99pb5
#
DISCID=8b0b200b
DTITLE=Flip Phillips - A Real Swinger
DYEAR=1900
DGENRE=Jazz
TTITLE0=Hashimoto's Blues
TTITLE1=Vol Vistu Gailey Star
TTITLE2=Tricotism
TTITLE3=I Was a Very Good Year/September Song
TTITLE4=Christian Scientist
TTITLE5=Green Medley: Green Leaves Of Summer/Greensleeves
TTITLE6=Cotton Tail
TTITLE7=I  Got a Right To Sing The Blues
TTITLE8=Symphony
TTITLE9=Poor Butterfly
TTITLE10=I  Want To Be Happy
EXTD=
EXTT0=
EXTT1=
EXTT2=
EXTT3=
EXTT4=
EXTT5=
EXTT6=
EXTT7=
EXTT8=
EXTT9=
EXTT10=
PLAYORDER=
